<svg width="341" height="52" viewBox="0 0 341 52" fill="none" xmlns="http://www.w3.org/2000/svg">
<g clip-path="url(#clip0_23_2)">
<path d="M17.4 5.10001C16.7 6.70001 17.2 9.70001 16.1 11.5C15 13.2 12 13.1 12 13.1C12 10.2 12 5.30001 12 5.00001C12 4.30001 12 2.90001 12.3 2.20001C12.7 1.10001 15.1 1.20001 15.1 1.20001V0.700012H10.7H6.4V1.20001C6.4 1.20001 8.8 1.10001 9.2 2.20001C9.5 2.90001 9.5 4.30001 9.5 5.00001C9.5 5.30001 9.5 10.2 9.5 13.1C9.5 13.1 6.4 13.2 5.4 11.5C4.3 9.70001 4.7 6.70001 4.1 5.10001C3.5 3.70001 2.8 2.60001 0 2.60001V3.20001C0 3.20001 0.8 3.30001 1.1 3.80001C1.4 4.30001 1.5 6.20001 1.5 7.30001C1.5 8.40001 1.6 11.3 3.4 12.7C5.4 14.3 8.2 14.3 9.5 14.3C9.5 17.1 9 19 8.2 20.7C7.9 21.3 7.2 22.4 6.7 23C6.5 23.3333 6.4 23.6667 6.4 24H10.7H15.1C15.1 23.6667 15 23.3333 14.8 23C14.3 22.4 13.5 21.3 13.2 20.7C12.4 19 12 17.1 12 14.3C13.3 14.3 16 14.3 18.1 12.7C19.8 11.3 20 8.40001 20 7.30001C20 6.20001 20.1 4.30001 20.4 3.80001C20.7 3.30001 21.5 3.20001 21.5 3.20001V2.60001C18.7 2.60001 18 3.70001 17.4 5.10001Z" fill="#333"/>
<path fill-rule="evenodd" clip-rule="evenodd" d="M56.6 4.19999L56.7 4.29999V4.89999L56.6 4.99999C55.8 4.99999 55.3 5.03332 55.1 5.09999C54.8333 5.16665 54.6667 5.26665 54.6 5.39999C54.5333 5.53332 54.5 5.79999 54.5 6.19999C54.5 6.66665 54.4667 7.83332 54.4 9.69999V15C54.4 15.8 54.4 16.6667 54.4 17.6C54.4667 18.6 54.5333 19.1667 54.6 19.3C54.6667 19.4333 54.8 19.5333 55 19.6C55.2 19.6667 55.7333 19.7333 56.6 19.8L56.7 19.9V20.4L56.6 20.5C55.3333 20.4333 54.2333 20.4 53.3 20.4C52.7 20.4 51.6333 20.4333 50.1 20.5L50 20.4V19.9L50.1 19.8C50.9667 19.7333 51.5 19.7 51.7 19.7C51.9 19.6333 52.0333 19.5 52.1 19.3C52.2333 19.1667 52.3 18.9 52.3 18.5C52.3 18.1 52.3 16.9333 52.3 15V6.59999L48.4 14.9C47.4 16.9667 46.5333 18.9 45.8 20.7H45.3C44.9 19.7667 44.5667 19 44.3 18.4L38.8 6.99999V15C38.8 15.7333 38.8 16.6 38.8 17.6C38.8667 18.5333 38.9333 19.1 39 19.3C39.0667 19.4333 39.2 19.5333 39.4 19.6C39.6 19.6667 40.1333 19.7333 41 19.8H41.1V20.4L41 20.5H40.3C39.5 20.4333 38.8333 20.4 38.3 20.4C38.0333 20.4 37.1333 20.4333 35.6 20.5L35.5 20.4V19.9L35.6 19.8C36.4 19.7333 36.9 19.6667 37.1 19.6C37.3 19.5333 37.4667 19.4333 37.6 19.3C37.6667 19.1667 37.7 18.9 37.7 18.5C37.7 18.1 37.7333 16.9333 37.8 15V9.69999C37.8 9.03332 37.7667 8.19999 37.7 7.19999C37.7 6.19999 37.6667 5.63332 37.6 5.49999C37.5333 5.29999 37.4 5.16665 37.2 5.09999C37 5.03332 36.4667 4.99999 35.6 4.99999L35.5 4.89999V4.29999L35.6 4.19999C36.1333 4.26665 36.8333 4.29999 37.7 4.29999C38.5667 4.29999 39.3 4.26665 39.9 4.19999C40.5667 5.73332 41.2 7.09999 41.8 8.29999L46.1 17.2L50 8.99999C51.0667 6.79999 51.8 5.19999 52.2 4.19999C52.9333 4.26665 53.6333 4.29999 54.3 4.29999C54.9667 4.29999 55.7333 4.26665 56.6 4.19999ZM57.8 20.5L57.6 20.4V19.8L57.8 19.7C58.3333 19.7 58.6667 19.6667 58.8 19.6C59 19.6 59.1667 19.5 59.3 19.3C59.3667 19.1667 59.6 18.7 60 17.9L61.2 15.3L64.3 8.19999C64.9 6.79999 65.5 5.39999 66.1 3.99999H66.8L71.7 15.6L72.4 17.1C72.6 17.5667 72.8333 18.0333 73.1 18.5C73.3 19.0333 73.4667 19.3333 73.6 19.4C73.6667 19.5333 73.7667 19.6 73.9 19.6C74.0333 19.6667 74.3667 19.7 74.9 19.7L75 19.8V20.4L74.9 20.5C74.1 20.4333 73.3667 20.4 72.7 20.4C71.4333 20.4667 70.1667 20.5 68.9 20.5L68.8 20.4V19.8L68.9 19.7C69.7667 19.7 70.3 19.6667 70.5 19.6C70.7 19.5333 70.8 19.4 70.8 19.2C70.8 19.0667 70.7333 18.8667 70.6 18.6L69.2 15.1H62.6L61.3 18C61.1 18.5333 61 18.9 61 19.1C61 19.3 61.1 19.4667 61.3 19.6C61.5 19.6667 62.0333 19.7 62.9 19.7L63 19.8V20.4L62.9 20.5C61.9 20.4333 61.0333 20.4 60.3 20.4C59.4333 20.4 58.6 20.4333 57.8 20.5ZM63 14.1H68.8L65.9 7.19999L63 14.1ZM76 4.29999L76.1 4.19999C77.5 4.26665 78.6 4.29999 79.4 4.29999C80.2667 4.29999 81.4333 4.26665 82.9 4.19999C83.4333 4.19999 83.8333 4.19999 84.1 4.19999C86.0333 4.19999 87.3333 4.53332 88 5.19999C88.6667 5.93332 89 6.76665 89 7.69999C89 8.36665 88.8333 8.99999 88.5 9.59999C88.1667 10.2667 87.6667 10.8 87 11.2C86.3333 11.6667 85.4333 12 84.3 12.2C84.5 12.5333 84.9 13.0667 85.5 13.8L87.1 15.9C87.6333 16.6333 88.2 17.4 88.8 18.2C89.4 19 89.8 19.4333 90 19.5C90.1333 19.6333 90.2667 19.7 90.4 19.7C90.5333 19.7 90.7333 19.7 91 19.7L91.1 19.8V20.4L91 20.5C90.6667 20.4333 90.2333 20.4 89.7 20.4C89.1667 20.4 88.5667 20.4333 87.9 20.5C87.3667 19.8333 86.5333 18.7 85.4 17.1C84.1333 15.3 82.8 13.6 81.4 12L81.5 11.7C81.9 11.7 82.2 11.7 82.4 11.7C83.7333 11.7 84.7667 11.4 85.5 10.8C86.3 10.1333 86.7 9.23332 86.7 8.09999C86.7 7.09999 86.3667 6.33332 85.7 5.79999C85.0333 5.33332 84.1 5.09999 82.9 5.09999C82.1 5.09999 81.3667 5.19999 80.7 5.39999C80.5667 5.53332 80.5 6.96665 80.5 9.69999V15V17.2C80.5 18.0667 80.5333 18.6333 80.6 18.9C80.6 19.1667 80.6333 19.3333 80.7 19.4C80.7667 19.4667 80.9333 19.5333 81.2 19.6C81.4 19.6667 81.9 19.7333 82.7 19.8H82.8V20.4L82.7 20.5C82.6333 20.5 81.9667 20.4667 80.7 20.4C80.1 20.4 79.6667 20.4 79.4 20.4C79.1333 20.4 78.0333 20.4333 76.1 20.5L76 20.4V19.8H76.1C76.8333 19.7333 77.3 19.6667 77.5 19.6C77.7667 19.6 77.9333 19.5667 78 19.5C78.0667 19.4333 78.1333 19.2667 78.2 19C78.2667 18.7333 78.3 18.2 78.3 17.4V15V9.69999V7.39999C78.3 6.53332 78.2667 5.99999 78.2 5.79999C78.2 5.53332 78.1667 5.36665 78.1 5.29999C77.9667 5.16665 77.8 5.09999 77.6 5.09999C77.4 5.03332 76.9 4.96665 76.1 4.89999L76 4.79999V4.29999ZM90.8 5.19999V4.79999L90.9 4.69999L94.2 4.09999C94.4 4.29999 94.6333 4.49999 94.9 4.69999C95.1 4.96665 95.4 5.43332 95.8 6.09999C96.2 6.76665 96.7333 7.69999 97.4 8.89999C98.0667 10.1 98.7 11.3 99.3 12.5L100.5 10.6L101.8 8.39999L104.2 4.29999C104.533 4.29999 104.833 4.29999 105.1 4.29999C105.3 4.29999 105.567 4.29999 105.9 4.29999L106 4.39999V4.59999C105.6 4.99999 105 5.76665 104.2 6.89999C103.4 7.96665 102.8 8.83332 102.4 9.49999C102 10.1 101.533 10.8667 101 11.8C100.4 12.7333 100.067 13.3 100 13.5C100 13.7 100 13.9333 100 14.2V15.9V17.6C100 18.2667 100 18.7333 100 19C100.067 19.2667 100.133 19.4333 100.2 19.5C100.267 19.5667 100.4 19.6333 100.6 19.7C100.8 19.7667 101.3 19.8 102.1 19.8L102.2 19.9V20.5L102.1 20.6C102.1 20.6 101.433 20.5667 100.1 20.5C99.5667 20.5 99.1333 20.5 98.8 20.5C98.6 20.5 97.5333 20.5333 95.6 20.6L95.5 20.5V19.9L95.6 19.8C96.3333 19.8 96.8 19.7667 97 19.7C97.2 19.6333 97.3667 19.5667 97.5 19.5C97.5667 19.4333 97.6333 19.3 97.7 19.1C97.7 18.9 97.7 18.4667 97.7 17.8L97.8 15.9V13.7C97.6 13.3 97.0333 12.3 96.1 10.7L95.1 9.09999C94.7667 8.56665 94.3667 7.93332 93.9 7.19999C93.3667 6.53332 92.9667 6.06665 92.7 5.79999C92.4333 5.59999 92.2333 5.46665 92.1 5.39999C91.9667 5.33332 91.5667 5.29999 90.9 5.29999L90.8 5.19999ZM113.1 20.6L113 20.5V19.9L113.1 19.8C113.7 19.8 114.067 19.7667 114.2 19.7C114.333 19.6333 114.467 19.5333 114.6 19.4C114.733 19.2667 115 18.7667 115.4 17.9L116.6 15.3L119.7 8.29999C120.3 6.89999 120.9 5.49999 121.5 4.09999H122.2L127.1 15.6L127.8 17.2C128 17.6 128.2 18.0667 128.4 18.6C128.667 19.0667 128.833 19.3667 128.9 19.5C129.033 19.5667 129.167 19.6333 129.3 19.7C129.433 19.7667 129.767 19.8 130.3 19.8V19.9V20.5V20.6C129.433 20.5333 128.7 20.5 128.1 20.5C126.833 20.5 125.567 20.5333 124.3 20.6L124.2 20.5V19.9L124.3 19.8C125.1 19.8 125.633 19.7667 125.9 19.7C126.1 19.6333 126.2 19.5 126.2 19.3C126.2 19.1 126.133 18.8667 126 18.6L124.6 15.1H118L116.7 18.1C116.5 18.5667 116.4 18.9333 116.4 19.2C116.4 19.4 116.5 19.5333 116.7 19.6C116.9 19.7333 117.433 19.8 118.3 19.8L118.4 19.9V20.5L118.3 20.6C117.3 20.5333 116.433 20.5 115.7 20.5C114.833 20.5 113.967 20.5333 113.1 20.6ZM118.4 14.1H124.2L121.3 7.19999L118.4 14.1ZM131.7 20.5L131.6 20.4V19.9L131.7 19.8C132.167 19.8 132.533 19.7667 132.8 19.7C133.067 19.7 133.233 19.6333 133.3 19.5C133.367 19.3667 133.433 19.2 133.5 19C133.5 18.7333 133.533 18.2 133.6 17.4C133.6 16.5333 133.6 15.9333 133.6 15.6V6.29999C133.6 5.89999 133.533 5.63332 133.4 5.49999C133.267 5.29999 133.067 5.16665 132.8 5.09999C132.6 5.03332 132.2 4.99999 131.6 4.99999L131.5 4.89999V4.39999L131.6 4.29999C132.667 4.29999 133.333 4.29999 133.6 4.29999C134.4 4.29999 135.033 4.29999 135.5 4.29999L139.2 8.99999L144.6 15.8C145.267 16.6 145.933 17.3667 146.6 18.1V9.19999C146.6 8.93332 146.567 8.36665 146.5 7.49999C146.5 6.56665 146.467 5.99999 146.4 5.79999C146.4 5.53332 146.333 5.36665 146.2 5.29999C146.133 5.16665 145.967 5.09999 145.7 5.09999C145.433 5.03332 145.067 4.99999 144.6 4.99999L144.5 4.89999V4.39999L144.6 4.29999C145.2 4.29999 146.1 4.29999 147.3 4.29999C148.3 4.29999 149.033 4.29999 149.5 4.29999L149.7 4.39999V4.89999L149.6 4.99999C149.067 4.99999 148.667 5.03332 148.4 5.09999C148.133 5.16665 147.967 5.23332 147.9 5.29999C147.833 5.43332 147.767 5.59999 147.7 5.79999C147.7 6.06665 147.7 6.59999 147.7 7.39999C147.633 8.26665 147.6 8.86665 147.6 9.19999V14.7V17.8C147.6 18.8667 147.633 19.9 147.7 20.9C147.3 20.7667 146.633 20.6333 145.7 20.5L144.9 19.5L142.4 16.5L134.7 6.79999V15.6C134.7 15.9333 134.7 16.5667 134.7 17.5C134.7 18.3667 134.733 18.9 134.8 19.1C134.867 19.3 134.9 19.4333 134.9 19.5C134.967 19.5667 135.1 19.6333 135.3 19.7C135.5 19.7667 135.933 19.8 136.6 19.8L136.7 19.9V20.4L136.6 20.5C136.2 20.5 135.567 20.5 134.7 20.5C133.567 20.5 132.567 20.5 131.7 20.5ZM151.2 20.5L151.1 20.4V19.9L151.2 19.8C151.667 19.8 152.033 19.7667 152.3 19.7C152.567 19.7 152.733 19.6333 152.8 19.5C152.933 19.3667 153 19.2 153 19C153 18.7333 153.033 18.2 153.1 17.4C153.1 16.5333 153.1 15.9333 153.1 15.6V6.29999C153.1 5.89999 153.033 5.63332 152.9 5.49999C152.767 5.29999 152.567 5.16665 152.3 5.09999C152.1 5.03332 151.7 4.99999 151.1 4.99999L151 4.89999V4.39999L151.1 4.29999C152.167 4.29999 152.867 4.29999 153.2 4.29999C153.933 4.29999 154.567 4.29999 155.1 4.29999L158.7 8.99999L164.1 15.8C164.767 16.6 165.433 17.3667 166.1 18.1V9.19999C166.1 8.93332 166.067 8.36665 166 7.49999C166 6.56665 165.967 5.99999 165.9 5.79999C165.9 5.53332 165.833 5.36665 165.7 5.29999C165.633 5.16665 165.467 5.09999 165.2 5.09999C164.933 5.03332 164.567 4.99999 164.1 4.99999L164 4.89999V4.39999L164.1 4.29999C164.767 4.29999 165.667 4.29999 166.8 4.29999C167.867 4.29999 168.633 4.29999 169.1 4.29999L169.2 4.39999V4.89999L169.1 4.99999C168.567 4.99999 168.167 5.03332 167.9 5.09999C167.633 5.16665 167.467 5.23332 167.4 5.29999C167.333 5.43332 167.267 5.59999 167.2 5.79999C167.2 6.06665 167.2 6.59999 167.2 7.39999C167.133 8.26665 167.1 8.86665 167.1 9.19999V14.7V17.8C167.167 18.8667 167.2 19.9 167.2 20.9C166.8 20.7667 166.133 20.6333 165.2 20.5L164.4 19.5L161.9 16.5L154.2 6.79999V15.6C154.2 15.9333 154.2 16.5667 154.2 17.5C154.2 18.3667 154.233 18.9 154.3 19.1C154.367 19.3 154.433 19.4333 154.5 19.5C154.5 19.5667 154.6 19.6333 154.8 19.7C155.067 19.7667 155.5 19.8 156.1 19.8L156.2 19.9V20.4L156.1 20.5C155.7 20.5 155.067 20.5 154.2 20.5C153.067 20.5 152.067 20.5 151.2 20.5ZM170.8 4.29999H170.9C173.5 4.29999 175.167 4.29999 175.9 4.29999C178.433 4.29999 180.667 4.29999 182.6 4.29999H182.7C182.5 5.03332 182.333 6.19999 182.2 7.79999V7.89999H181.6L181.5 7.79999C181.5 7.73332 181.5 7.66665 181.5 7.59999C181.5 6.93332 181.467 6.29999 181.4 5.69999C180.867 5.49999 180.2 5.36665 179.4 5.29999C178.533 5.23332 177.867 5.19999 177.4 5.19999C176.8 5.19999 176.033 5.26665 175.1 5.39999V7.19999L175 9.29999V11.6C175.867 11.6667 176.633 11.7 177.3 11.7C178.033 11.7 178.633 11.6667 179.1 11.6C179.567 11.5333 179.833 11.5 179.9 11.5C179.967 11.4333 180.033 11.3333 180.1 11.2C180.1 11.0667 180.133 10.8 180.2 10.4V9.69999L180.3 9.59999H180.8L180.9 9.69999C180.9 10.5667 180.9 11.4 180.9 12.2V14.8L180.8 14.9H180.3L180.2 14.8L180.1 14.1C180.033 13.5667 180 13.2667 180 13.2C180 13.0667 179.933 12.9667 179.8 12.9C179.667 12.8333 179.367 12.7667 178.9 12.7C178.433 12.6333 177.8 12.6 177 12.6C176.6 12.6 175.933 12.6333 175 12.7C175 13.3667 175 14.4333 175 15.9C175 17.5 175 18.7 175 19.5H177.1C178.967 19.5 180.133 19.4667 180.6 19.4C181.067 19.3333 181.5 19.2333 181.9 19.1C181.967 18.9 182.1 18.4667 182.3 17.8C182.433 17.2 182.5 16.8 182.5 16.6H182.7H183.2H183.3C183.233 16.9333 183.167 17.5333 183.1 18.4C183.033 19.2 183 19.9 183 20.5H182.9C181.433 20.5 179.533 20.5 177.2 20.5H174.1C173.367 20.5 172.6 20.5 171.8 20.5H171.7V20.1L171.8 20C172.267 19.7333 172.533 19.5667 172.6 19.5C172.667 19.4333 172.7 18.7667 172.7 17.5C172.767 16.2333 172.8 15.2667 172.8 14.6V10.4V7.79999C172.8 7.19999 172.8 6.73332 172.8 6.39999C172.733 6.06665 172.7 5.79999 172.7 5.59999C172.633 5.46665 172.6 5.36665 172.6 5.29999C172.533 5.23332 172.433 5.19999 172.3 5.19999C172.167 5.13332 171.967 5.09999 171.7 5.09999L170.9 4.99999L170.8 4.89999V4.29999ZM215.5 4.29999L215.6 4.39999V4.89999L215.5 4.99999C214.633 4.99999 214.1 5.03332 213.9 5.09999C213.7 5.16665 213.567 5.26665 213.5 5.39999C213.433 5.53332 213.4 5.83332 213.4 6.29999C213.333 6.69999 213.3 7.83332 213.3 9.69999V15C213.3 15.8 213.3 16.6667 213.3 17.6C213.367 18.6 213.433 19.1667 213.5 19.3C213.567 19.4333 213.7 19.5667 213.9 19.7C214.1 19.7667 214.633 19.8 215.5 19.8L215.6 19.9V20.4L215.5 20.5C214.233 20.4333 213.133 20.4 212.2 20.4C211.6 20.4 210.533 20.4333 209 20.5L208.9 20.4V19.9L209 19.8C209.867 19.8 210.4 19.7667 210.6 19.7C210.8 19.6333 210.933 19.5333 211 19.4C211.067 19.2667 211.133 18.9667 211.2 18.5C211.2 18.1 211.2 16.9333 211.2 15V6.59999L207.3 14.9C206.3 16.9667 205.433 18.9 204.7 20.7H204.2C203.8 19.7667 203.467 19 203.2 18.4L197.7 6.99999V15C197.7 15.7333 197.7 16.6 197.7 17.6C197.7 18.6 197.767 19.1667 197.9 19.3C197.967 19.4333 198.1 19.5333 198.3 19.6C198.433 19.6667 198.967 19.7333 199.9 19.8L200 19.9V20.4L199.9 20.5H199.1C198.367 20.4333 197.733 20.4 197.2 20.4C196.933 20.4 196 20.4333 194.4 20.5V20.4V19.9V19.8C195.267 19.7333 195.8 19.7 196 19.7C196.2 19.6333 196.333 19.5 196.4 19.3C196.533 19.1667 196.6 18.9 196.6 18.5C196.6 18.1 196.6 16.9333 196.6 15V9.79999C196.6 9.06665 196.6 8.19999 196.6 7.19999C196.6 6.19999 196.567 5.63332 196.5 5.49999C196.433 5.36665 196.3 5.23332 196.1 5.09999C195.9 5.03332 195.333 4.99999 194.4 4.99999V4.89999V4.39999L194.5 4.29999C194.967 4.29999 195.667 4.29999 196.6 4.29999C197.4 4.29999 198.133 4.29999 198.8 4.29999C199.467 5.76665 200.067 7.09999 200.6 8.29999L205 17.2L208.9 8.99999C209.967 6.79999 210.667 5.23332 211 4.29999C211.8 4.29999 212.533 4.29999 213.2 4.29999C213.867 4.29999 214.633 4.29999 215.5 4.29999ZM219.1 17.9C219.433 17.9 219.733 18.0333 220 18.3C220.267 18.5667 220.4 18.9 220.4 19.3C220.4 19.6333 220.267 19.9333 220 20.2C219.733 20.4667 219.433 20.6 219.1 20.6C218.7 20.6 218.367 20.4667 218.1 20.2C217.833 19.9333 217.7 19.6333 217.7 19.3C217.7 18.9 217.833 18.5667 218.1 18.3C218.367 18.0333 218.7 17.9 219.1 17.9ZM229.5 4.99999L229.4 4.89999V4.29999L229.5 4.19999C230.767 4.26665 231.767 4.29999 232.5 4.29999C232.767 4.29999 233.833 4.26665 235.7 4.19999C236.3 4.19999 236.733 4.19999 237 4.19999C238 4.19999 238.8 4.29999 239.4 4.49999C240 4.69999 240.5 5.06665 240.9 5.59999C241.233 6.13332 241.4 6.73332 241.4 7.39999C241.4 8.26665 241.1 9.03332 240.5 9.69999C239.9 10.4333 238.9 10.9667 237.5 11.3C238.367 11.3667 239.067 11.4667 239.6 11.6C240.133 11.8 240.567 12.0333 240.9 12.3C241.3 12.6333 241.633 13.0333 241.9 13.5C242.1 13.9667 242.2 14.5333 242.2 15.2C242.2 15.6667 242.133 16.1667 242 16.7C241.867 17.1667 241.567 17.6667 241.1 18.2C240.7 18.7333 240.233 19.1667 239.7 19.5C239.1 19.8333 238.5 20.1 237.9 20.3C237.3 20.4333 236.533 20.5 235.6 20.5C235.4 20.5 234.867 20.5 234 20.5C232.933 20.4333 232.367 20.4 232.3 20.4C231.767 20.4 231.133 20.4333 230.4 20.5L230.3 20.4V20L230.4 19.9C230.867 19.7 231.133 19.5667 231.2 19.5C231.267 19.4333 231.3 18.7667 231.3 17.5C231.367 16.2333 231.4 15.2667 231.4 14.6V10.4V7.79999C231.4 7.19999 231.367 6.73332 231.3 6.39999C231.3 5.99999 231.3 5.73332 231.3 5.59999C231.233 5.46665 231.2 5.36665 231.2 5.29999C231.133 5.23332 231.033 5.16665 230.9 5.09999C230.767 5.09999 230.567 5.06665 230.3 4.99999H229.5ZM233.6 11C234 11.0667 234.433 11.1 234.9 11.1C236.5 11.1 237.6 10.8 238.2 10.2C238.867 9.66665 239.2 8.89999 239.2 7.89999C239.2 7.36665 239.067 6.89999 238.8 6.49999C238.6 6.03332 238.233 5.69999 237.7 5.49999C237.167 5.29999 236.467 5.19999 235.6 5.19999C234.933 5.19999 234.333 5.26665 233.8 5.39999C233.667 6.06665 233.6 7.26665 233.6 8.99999V11ZM233.7 19.3C234.3 19.4333 234.9 19.5 235.5 19.5C236.567 19.5 237.4 19.3333 238 19C238.667 18.6667 239.133 18.2 239.4 17.6C239.733 16.9333 239.9 16.2333 239.9 15.5C239.9 14.4333 239.567 13.5667 238.9 12.9C238.3 12.2333 236.967 11.9 234.9 11.9C234.567 11.9 234.133 11.9 233.6 11.9V15.8L233.7 19.3ZM244 20.5L243.9 20.4V19.8L244 19.7C244.6 19.7 244.967 19.7 245.1 19.7C245.3 19.6333 245.433 19.5333 245.5 19.4C245.633 19.2 245.9 18.7 246.3 17.9L247.5 15.3L250.6 8.19999C251.2 6.79999 251.8 5.43332 252.4 4.09999H253.1L258 15.6L258.7 17.1C258.9 17.5667 259.1 18.0333 259.3 18.5C259.567 19.0333 259.767 19.3333 259.9 19.4C259.967 19.5333 260.067 19.6333 260.2 19.7C260.333 19.7 260.667 19.7 261.2 19.7L261.3 19.8V20.4L261.2 20.5C260.333 20.4333 259.6 20.4 259 20.4C257.733 20.4667 256.467 20.5 255.2 20.5L255.1 20.4V19.8L255.2 19.7C256.067 19.7 256.6 19.6667 256.8 19.6C257 19.5333 257.1 19.4 257.1 19.2C257.1 19.0667 257.033 18.8667 256.9 18.6L255.5 15.1H248.9L247.6 18C247.4 18.5333 247.3 18.9333 247.3 19.2C247.3 19.4 247.4 19.5333 247.6 19.6C247.8 19.6667 248.333 19.7 249.2 19.7L249.3 19.8V20.4L249.2 20.5C248.2 20.4333 247.333 20.4 246.6 20.4C245.733 20.4 244.867 20.4333 244 20.5ZM249.3 14.1H255.1L252.2 7.19999L249.3 14.1ZM262.3 4.29999L262.4 4.19999C263.8 4.26665 264.9 4.29999 265.7 4.29999C266.567 4.29999 267.733 4.26665 269.2 4.19999C269.733 4.19999 270.1 4.19999 270.3 4.19999C272.233 4.19999 273.567 4.56665 274.3 5.29999C274.967 5.96665 275.3 6.79999 275.3 7.79999C275.3 8.39999 275.133 8.99999 274.8 9.59999C274.467 10.2667 273.967 10.8 273.3 11.2C272.633 11.6667 271.733 12 270.6 12.2C270.8 12.5333 271.2 13.0667 271.8 13.8L273.4 15.9C273.933 16.6333 274.5 17.4 275.1 18.2C275.7 19 276.1 19.4333 276.3 19.5C276.433 19.6333 276.567 19.7 276.7 19.7C276.833 19.7 277.033 19.7 277.3 19.7L277.4 19.8V20.4L277.3 20.5C276.9 20.4333 276.467 20.4 276 20.4C275.467 20.4 274.867 20.4333 274.2 20.5C273.667 19.8333 272.833 18.7 271.7 17.1C270.433 15.3 269.1 13.6 267.7 12L267.8 11.7C268.2 11.7 268.5 11.7 268.7 11.7C270.033 11.7 271.067 11.4 271.8 10.8C272.6 10.1333 273 9.23332 273 8.09999C273 7.09999 272.667 6.33332 272 5.79999C271.267 5.33332 270.333 5.09999 269.2 5.09999C268.4 5.09999 267.667 5.19999 267 5.39999C266.867 5.59999 266.8 7.03332 266.8 9.69999V15V17.2C266.8 18.0667 266.833 18.6333 266.9 18.9C266.9 19.1667 266.933 19.3333 267 19.4C267.067 19.5333 267.2 19.6 267.4 19.6C267.667 19.6667 268.2 19.7333 269 19.8H269.1V20.4L269 20.5C268.933 20.5 268.267 20.4667 267 20.4C266.4 20.4 265.967 20.4 265.7 20.4C265.433 20.4 264.333 20.4333 262.4 20.5L262.3 20.4V19.8H262.4C263.133 19.7333 263.6 19.7 263.8 19.7C264.067 19.6333 264.233 19.5667 264.3 19.5C264.367 19.4333 264.433 19.2667 264.5 19C264.567 18.8 264.6 18.2667 264.6 17.4V15V9.69999V7.49999C264.6 6.63332 264.567 6.06665 264.5 5.79999C264.5 5.53332 264.433 5.36665 264.3 5.29999C264.233 5.23332 264.1 5.16665 263.9 5.09999C263.7 5.03332 263.2 4.96665 262.4 4.89999H262.3V4.29999ZM277.9 4.89999L277.8 4.79999V4.29999L277.9 4.19999C279.233 4.26665 280.267 4.29999 281 4.29999C281.267 4.29999 282.3 4.26665 284.1 4.19999C284.7 4.19999 285.133 4.19999 285.4 4.19999C286.467 4.19999 287.3 4.29999 287.9 4.49999C288.5 4.69999 288.967 5.06665 289.3 5.59999C289.7 6.13332 289.9 6.69999 289.9 7.29999C289.9 8.16665 289.6 8.96665 289 9.69999C288.4 10.4333 287.4 10.9667 286 11.3C286.8 11.3667 287.467 11.4667 288 11.6C288.533 11.7333 289 11.9667 289.4 12.3C289.8 12.5667 290.1 12.9667 290.3 13.5C290.567 13.9667 290.7 14.5 290.7 15.1C290.7 15.6333 290.633 16.1333 290.5 16.6C290.3 17.1333 290 17.6667 289.6 18.2C289.2 18.6667 288.7 19.1 288.1 19.5C287.567 19.8333 286.967 20.0667 286.3 20.2C285.7 20.4 284.967 20.5 284.1 20.5C283.9 20.5 283.333 20.4667 282.4 20.4C281.4 20.4 280.867 20.4 280.8 20.4C280.267 20.4 279.633 20.4333 278.9 20.5L278.8 20.4V20L278.9 19.9C279.3 19.7 279.533 19.5667 279.6 19.5C279.667 19.4333 279.733 18.7667 279.8 17.5C279.867 16.1667 279.9 15.1667 279.9 14.5V10.3L279.8 7.69999C279.8 7.16665 279.8 6.69999 279.8 6.29999C279.8 5.96665 279.8 5.73332 279.8 5.59999C279.733 5.39999 279.667 5.29999 279.6 5.29999C279.533 5.23332 279.467 5.16665 279.4 5.09999C279.267 5.03332 279.067 4.99999 278.8 4.99999L277.9 4.89999ZM282 10.9C282.4 10.9667 282.833 11 283.3 11C284.9 10.9333 286 10.6333 286.6 10.1C287.2 9.56665 287.5 8.79999 287.5 7.79999C287.5 7.19999 287.4 6.69999 287.2 6.29999C286.933 5.89999 286.567 5.59999 286.1 5.39999C285.567 5.19999 284.867 5.09999 284 5.09999C283.267 5.09999 282.633 5.13332 282.1 5.19999C282.033 5.93332 282 7.13332 282 8.79999V10.9ZM282 19.3C282.6 19.4333 283.233 19.5 283.9 19.5C284.967 19.5 285.8 19.3333 286.4 19C287 18.6667 287.467 18.1667 287.8 17.5C288.067 16.9 288.2 16.2333 288.2 15.5C288.2 14.3667 287.9 13.4667 287.3 12.8C286.7 12.1333 285.367 11.8 283.3 11.8C282.9 11.8 282.467 11.8333 282 11.9V15.8V19.3ZM292.4 12.5C292.4 11.3667 292.567 10.3 292.9 9.29999C293.167 8.29999 293.7 7.36665 294.5 6.49999C295.3 5.69999 296.267 5.06665 297.4 4.59999C298.533 4.13332 299.8 3.89999 301.2 3.89999C303.8 3.89999 305.867 4.59999 307.4 5.99999C308.933 7.39999 309.7 9.33332 309.7 11.8C309.7 13.5333 309.333 15.1 308.6 16.5C307.8 17.8333 306.7 18.9 305.3 19.7C303.9 20.4333 302.333 20.8 300.6 20.8C299.333 20.8 298.167 20.6 297.1 20.2C296.1 19.8 295.233 19.1667 294.5 18.3C293.767 17.5 293.233 16.5667 292.9 15.5C292.567 14.3667 292.4 13.3667 292.4 12.5ZM294.7 11.7C294.7 12.6333 294.867 13.6333 295.2 14.7C295.467 15.8333 295.9 16.7667 296.5 17.5C297.167 18.3 297.867 18.8667 298.6 19.2C299.4 19.6 300.3 19.8 301.3 19.8C302.5 19.8 303.567 19.5333 304.5 19C305.433 18.4667 306.133 17.6 306.6 16.4C307.067 15.2667 307.3 14 307.3 12.6C307.3 11.0667 307.033 9.66665 306.5 8.39999C305.9 7.13332 305.1 6.23332 304.1 5.69999C303.1 5.09999 301.967 4.79999 300.7 4.79999C298.9 4.79999 297.433 5.39999 296.3 6.59999C295.233 7.73332 294.7 9.43332 294.7 11.7ZM311.2 16.4H311.3H311.8H311.9C311.967 17.4 312.033 18 312.1 18.2C312.167 18.4667 312.367 18.7 312.7 18.9C313.033 19.1667 313.5 19.3667 314.1 19.5C314.7 19.6333 315.267 19.7 315.8 19.7C316.6 19.7 317.333 19.5667 318 19.3C318.667 19.0333 319.167 18.6 319.5 18C319.9 17.4 320.1 16.7333 320.1 16C320.1 15.5333 320 15.1 319.8 14.7C319.6 14.3667 319.367 14.0667 319.1 13.8C318.767 13.6 318.4 13.4333 318 13.3C317.6 13.2333 317 13.1333 316.2 13C315.467 12.8667 314.9 12.7333 314.5 12.6C314.033 12.5333 313.6 12.4 313.2 12.2C312.733 12 312.367 11.7333 312.1 11.4C311.833 11.0667 311.6 10.6667 311.4 10.2C311.2 9.73332 311.1 9.23332 311.1 8.69999C311.1 7.29999 311.6 6.13332 312.6 5.19999C313.6 4.26665 314.933 3.79999 316.6 3.79999C317.267 3.79999 318 3.89999 318.8 4.09999C319.6 4.23332 320.3 4.46665 320.9 4.79999L321 4.99999C320.867 5.66665 320.767 6.66665 320.7 7.99999L320.6 8.09999H320L319.9 7.99999C319.9 7.06665 319.9 6.46665 319.9 6.19999C319.833 5.99999 319.467 5.73332 318.8 5.39999C318.133 4.99999 317.4 4.79999 316.6 4.79999C316 4.79999 315.4 4.93332 314.8 5.19999C314.267 5.46665 313.833 5.86665 313.5 6.39999C313.233 6.99999 313.1 7.59999 313.1 8.19999C313.1 8.59999 313.2 8.99999 313.4 9.39999C313.533 9.73332 313.733 9.99999 314 10.2C314.333 10.4 314.667 10.5333 315 10.6C315.4 10.7333 316.1 10.8667 317.1 11C318.433 11.2 319.4 11.4333 320 11.7C320.6 11.9667 321.1 12.4 321.5 13C321.833 13.6 322 14.3 322 15.1C322 16.7667 321.367 18.1333 320.1 19.2C318.767 20.2667 317.133 20.8 315.2 20.8C313.667 20.8 312.3 20.5333 311.1 20L311 19.8C311.067 19.3333 311.133 18.2 311.2 16.4Z" fill="#333"/>
<path fill-rule="evenodd" clip-rule="evenodd" d="M322.9 20.5L322.8 20.4V19.8L322.9 19.7C323.5 19.7 323.867 19.6667 324 19.6C324.133 19.6 324.267 19.5 324.4 19.3C324.533 19.1667 324.8 18.7 325.2 17.9L326.4 15.3L329.5 8.2C330.1 6.8 330.7 5.4 331.3 4H332L336.9 15.6L337.6 17.1C337.8 17.5667 338 18.0333 338.2 18.5C338.467 19.0333 338.633 19.3333 338.7 19.4C338.833 19.5333 338.967 19.6 339.1 19.6C339.233 19.6667 339.533 19.7 340 19.7L340.1 19.8V20.4L340 20.5C339.2 20.4333 338.5 20.4 337.9 20.4C336.633 20.4667 335.367 20.5 334.1 20.5L334 20.4V19.8L334.1 19.7C334.9 19.7 335.433 19.6667 335.7 19.6C335.9 19.5333 336 19.4 336 19.2C336 19.0667 335.933 18.8667 335.8 18.6L334.4 15.1H327.8L326.5 18C326.3 18.5333 326.2 18.9 326.2 19.1C326.2 19.3 326.3 19.4667 326.5 19.6C326.7 19.6667 327.233 19.7 328.1 19.7L328.2 19.8V20.4L328.1 20.5C327.1 20.4333 326.233 20.4 325.5 20.4C324.633 20.4 323.767 20.4333 322.9 20.5ZM328.2 14.1H334L331.1 7.2L328.2 14.1Z" fill="#333"/>
<path fill-rule="evenodd" clip-rule="evenodd" d="M94.4 46.1V51H93.2V38.4H96.5C97.1666 38.4 97.7666 38.5 98.3 38.7C98.7666 38.8333 99.2 39.0667 99.6 39.4C99.9333 39.6667 100.2 40.0333 100.4 40.5C100.533 40.9667 100.6 41.5 100.6 42.1C100.6 42.6333 100.5 43.1667 100.3 43.7C100.1 44.1667 99.8 44.6 99.4 45C99.0666 45.3333 98.6 45.6 98 45.8C97.4666 46 96.8666 46.1 96.2 46.1H94.4ZM94.4 39.5V45H96C97.1333 45 97.9666 44.7667 98.5 44.3C99.0333 43.7667 99.3 43.0333 99.3 42.1C99.3 40.3667 98.2666 39.5 96.2 39.5H94.4ZM104.6 49.2C104.867 49.3333 105.1 49.4667 105.3 49.6C105.567 49.7333 105.833 49.8333 106.1 49.9C106.367 49.9667 106.633 50.0333 106.9 50.1C107.167 50.1667 107.433 50.2 107.7 50.2C108.633 50.2 109.333 50 109.8 49.6C110.333 49.2667 110.6 48.7333 110.6 48C110.6 47.6667 110.533 47.3667 110.4 47.1C110.267 46.9 110.1 46.6667 109.9 46.4C109.633 46.2 109.333 46 109 45.8C108.6 45.6 108.167 45.3667 107.7 45.1C107.167 44.7667 106.7 44.4667 106.3 44.2C105.967 44 105.667 43.7333 105.4 43.4C105.133 43.1333 104.967 42.8667 104.9 42.6C104.767 42.2667 104.7 41.9 104.7 41.5C104.7 40.9667 104.8 40.5 105 40.1C105.2 39.7 105.5 39.3667 105.9 39.1C106.233 38.7667 106.667 38.5333 107.2 38.4C107.667 38.2667 108.2 38.2 108.8 38.2C109.8 38.2 110.633 38.3333 111.3 38.6V39.9C110.5 39.5 109.6 39.3 108.6 39.3C108.267 39.3 107.933 39.3333 107.6 39.4C107.267 39.4667 106.967 39.6 106.7 39.8C106.433 40 106.233 40.2 106.1 40.4C105.967 40.6667 105.9 41 105.9 41.4C105.9 41.7333 105.967 42 106.1 42.2C106.167 42.4667 106.3 42.7 106.5 42.9C106.7 43.1 107 43.3 107.4 43.5C107.733 43.7 108.133 43.9333 108.6 44.2C109.133 44.4667 109.6 44.7333 110 45C110.4 45.2667 110.733 45.5667 111 45.9C111.267 46.1667 111.467 46.4667 111.6 46.8C111.733 47.1333 111.8 47.5 111.8 47.9C111.8 48.4333 111.7 48.9 111.5 49.3C111.3 49.7667 111 50.1333 110.6 50.4C110.267 50.6667 109.833 50.8667 109.3 51C108.767 51.1333 108.2 51.2 107.6 51.2C107.4 51.2 107.167 51.2 106.9 51.2C106.633 51.1333 106.367 51.0667 106.1 51C105.767 50.9333 105.5 50.8667 105.3 50.8C105.033 50.7333 104.8 50.6333 104.6 50.5V49.2ZM117.5 51.1H116.3V38.5H117.5V51.1ZM131.2 50.6C130.2 51.0667 129.1 51.3 127.9 51.3C126.967 51.3 126.133 51.1333 125.4 50.8C124.667 50.5333 124.067 50.1 123.6 49.5C123.067 48.9667 122.667 48.3 122.4 47.5C122.133 46.7667 122 45.9333 122 45C122 44.0667 122.133 43.2 122.4 42.4C122.667 41.5333 123.1 40.8 123.7 40.2C124.233 39.6 124.9 39.1333 125.7 38.8C126.5 38.4667 127.367 38.3 128.3 38.3C129.367 38.3 130.333 38.4667 131.2 38.8V40C130.267 39.5333 129.3 39.3 128.3 39.3C127.5 39.3 126.767 39.4667 126.1 39.8C125.5 40.0667 124.967 40.4333 124.5 40.9C124.1 41.4333 123.767 42.0333 123.5 42.7C123.3 43.3667 123.2 44.1 123.2 44.9C123.2 45.6333 123.3 46.3333 123.5 47C123.7 47.6 124 48.1667 124.4 48.7C124.8 49.1667 125.3 49.5333 125.9 49.8C126.5 50.0667 127.2 50.2 128 50.2C129.2 50.2 130.267 49.9667 131.2 49.5V50.6ZM140.5 51.3C139.567 51.3 138.733 51.1333 138 50.8C137.267 50.4667 136.667 50 136.2 49.4C135.667 48.8 135.267 48.1333 135 47.4C134.733 46.6 134.6 45.7667 134.6 44.9C134.6 43.9 134.733 43 135 42.2C135.267 41.3333 135.667 40.6333 136.2 40.1C136.733 39.5 137.367 39.0333 138.1 38.7C138.833 38.3667 139.7 38.2 140.7 38.2C141.567 38.2 142.367 38.3667 143.1 38.7C143.767 39.0333 144.367 39.4667 144.9 40C145.367 40.6 145.733 41.2667 146 42C146.267 42.8 146.4 43.6667 146.4 44.6C146.4 45.5333 146.267 46.4 146 47.2C145.8 48 145.433 48.7 144.9 49.3C144.367 49.9 143.733 50.3667 143 50.7C142.267 51.1 141.433 51.3 140.5 51.3ZM140.6 39.3C139.8 39.3 139.1 39.4333 138.5 39.7C137.9 40.0333 137.4 40.4333 137 40.9C136.6 41.3667 136.3 41.9333 136.1 42.6C135.9 43.2667 135.8 44 135.8 44.8C135.8 45.4667 135.9 46.1333 136.1 46.8C136.3 47.4667 136.567 48.0333 136.9 48.5C137.3 49.0333 137.8 49.4333 138.4 49.7C139 50.0333 139.667 50.2 140.4 50.2C141.2 50.2 141.9 50.0667 142.5 49.8C143.1 49.5333 143.6 49.1667 144 48.7C144.4 48.1667 144.7 47.5667 144.9 46.9C145.1 46.2333 145.2 45.5 145.2 44.7C145.2 43.9667 145.1 43.2667 144.9 42.6C144.767 41.9333 144.5 41.3667 144.1 40.9C143.7 40.4333 143.233 40.0333 142.7 39.7C142.1 39.4333 141.4 39.3 140.6 39.3ZM140.3 37.4H139.3L141.3 34.5H142.5L140.3 37.4ZM150.9 51.1V38.5H152.1V50H157.2V51.1H150.9ZM165.7 51.3C164.767 51.3 163.933 51.1333 163.2 50.8C162.467 50.4667 161.867 50 161.4 49.4C160.867 48.8667 160.467 48.2 160.2 47.4C159.933 46.6 159.8 45.7667 159.8 44.9C159.8 43.9 159.933 43 160.2 42.2C160.467 41.4 160.867 40.7 161.4 40.1C161.933 39.5 162.567 39.0333 163.3 38.7C164.033 38.3667 164.9 38.2 165.9 38.2C166.767 38.2 167.567 38.3667 168.3 38.7C169.033 39.0333 169.633 39.4667 170.1 40C170.633 40.6 171.033 41.3 171.3 42.1C171.567 42.8333 171.7 43.6667 171.7 44.6C171.7 45.5333 171.567 46.4 171.3 47.2C171.033 48.0667 170.633 48.8 170.1 49.4C169.567 50 168.933 50.4667 168.2 50.8C167.467 51.1333 166.633 51.3 165.7 51.3ZM165.8 39.3C165 39.3 164.3 39.4333 163.7 39.7C163.167 40.0333 162.7 40.4333 162.3 40.9C161.833 41.4333 161.5 42.0333 161.3 42.7C161.1 43.3667 161 44.0667 161 44.8C161 45.5333 161.1 46.2 161.3 46.8C161.5 47.4667 161.8 48.0667 162.2 48.6C162.533 49.0667 163 49.4667 163.6 49.8C164.2 50.0667 164.9 50.2 165.7 50.2C166.433 50.2 167.1 50.0667 167.7 49.8C168.3 49.5333 168.8 49.1667 169.2 48.7C169.6 48.1667 169.9 47.5667 170.1 46.9C170.3 46.2333 170.4 45.5333 170.4 44.8C170.4 44 170.333 43.3 170.2 42.7C170 42.0333 169.7 41.4333 169.3 40.9C168.967 40.4333 168.5 40.0333 167.9 39.7C167.3 39.4333 166.6 39.3 165.8 39.3ZM185.4 50.2C184.067 50.9333 182.7 51.3 181.3 51.3C180.367 51.3 179.533 51.1333 178.8 50.8C178.067 50.4667 177.433 50.0333 176.9 49.5C176.433 48.9667 176.067 48.3 175.8 47.5C175.533 46.7 175.4 45.8333 175.4 44.9C175.4 44.3 175.467 43.7333 175.6 43.2C175.733 42.6 175.9 42.0667 176.1 41.6C176.367 41.0667 176.7 40.6 177.1 40.2C177.433 39.8 177.833 39.4667 178.3 39.2C178.833 38.8667 179.367 38.6333 179.9 38.5C180.5 38.3 181.133 38.2 181.8 38.2C183.067 38.2 184.167 38.4333 185.1 38.9V40.2C184.033 39.6 182.867 39.3 181.6 39.3C180.867 39.3 180.2 39.4333 179.6 39.7C178.933 39.9667 178.4 40.3667 178 40.9C177.533 41.3667 177.2 41.9333 177 42.6C176.733 43.2667 176.6 44 176.6 44.8C176.6 45.6 176.7 46.3333 176.9 47C177.1 47.6667 177.4 48.2333 177.8 48.7C178.2 49.1667 178.7 49.5333 179.3 49.8C179.9 50.0667 180.6 50.2 181.4 50.2C182.467 50.2 183.4 49.9667 184.2 49.5V45.7H181.4V44.6H185.4V50.2ZM198.4 51.1L197 47.4H191.6L190.3 51.1H189L193.8 38.5H194.9L199.7 51.1H198.4ZM194.6 40.7C194.533 40.5667 194.467 40.4333 194.4 40.3C194.4 40.1667 194.367 40 194.3 39.8C194.233 40 194.2 40.1667 194.2 40.3C194.133 40.4333 194.067 40.5667 194 40.7L192 46.3H196.6L194.6 40.7ZM217.1 50.6C216.1 51.0667 215 51.3 213.8 51.3C212.867 51.3 212.033 51.1667 211.3 50.9C210.567 50.5667 209.967 50.1333 209.5 49.6C208.967 49 208.567 48.3333 208.3 47.6C208.033 46.8 207.9 45.9667 207.9 45.1C207.9 44.1 208.033 43.2 208.3 42.4C208.633 41.6 209.067 40.8667 209.6 40.2C210.133 39.6 210.8 39.1333 211.6 38.8C212.4 38.4667 213.267 38.3 214.2 38.3C215.267 38.3 216.233 38.4667 217.1 38.8V40C216.167 39.6 215.2 39.4 214.2 39.4C213.4 39.4 212.667 39.5333 212 39.8C211.4 40.0667 210.867 40.4667 210.4 41C210 41.4667 209.667 42.0333 209.4 42.7C209.2 43.4333 209.1 44.2 209.1 45C209.1 45.7333 209.2 46.4 209.4 47C209.6 47.6667 209.9 48.2333 210.3 48.7C210.7 49.1667 211.2 49.5333 211.8 49.8C212.4 50.1333 213.1 50.3 213.9 50.3C215.1 50.3 216.167 50.0333 217.1 49.5V50.6ZM221.7 51.1V38.5H222.9V50H227.9V51.1H221.7ZM233.2 51.1H232V38.5H233.2V51.1ZM232.6 37.4H231.7L233.7 34.6H234.9L232.6 37.4ZM247 51L240 40.9C239.933 40.7667 239.833 40.6333 239.7 40.5C239.633 40.3667 239.567 40.2333 239.5 40.1C239.5 40.1667 239.5 40.3 239.5 40.5C239.5 40.7 239.5 40.9333 239.5 41.2V51H238.4V38.4H239.7L246.5 48.4C246.633 48.5333 246.733 48.6667 246.8 48.8C246.867 48.9333 246.967 49.0667 247.1 49.2C247.1 49 247.067 48.8 247 48.6C247 48.3333 247 48.0667 247 47.8V38.4H248.2V51H247ZM254.6 51H253.4V38.4H254.6V51ZM268.3 50.5C267.3 50.9667 266.2 51.2 265 51.2C264.067 51.2 263.233 51.0333 262.5 50.7C261.767 50.4333 261.167 50 260.7 49.4C260.167 48.8667 259.767 48.2 259.5 47.4C259.233 46.6667 259.1 45.8333 259.1 44.9C259.1 43.9667 259.233 43.1 259.5 42.3C259.767 41.4333 260.2 40.7 260.8 40.1C261.333 39.5 262 39.0333 262.8 38.7C263.6 38.3667 264.467 38.2 265.4 38.2C266.467 38.2 267.433 38.3667 268.3 38.7V39.9C267.367 39.4333 266.4 39.2 265.4 39.2C264.6 39.2 263.867 39.3667 263.2 39.7C262.6 39.9667 262.067 40.3333 261.6 40.8C261.2 41.3333 260.867 41.9333 260.6 42.6C260.4 43.2667 260.3 44 260.3 44.8C260.3 45.5333 260.4 46.2333 260.6 46.9C260.8 47.5667 261.1 48.1333 261.5 48.6C261.9 49.0667 262.4 49.4333 263 49.7C263.6 49.9667 264.3 50.1 265.1 50.1C266.3 50.1 267.367 49.8667 268.3 49.4V50.5ZM281.1 51L279.7 47.2H274.3L272.9 51H271.6L276.4 38.4H277.6L282.4 51H281.1ZM277.2 40.6C277.2 40.4667 277.167 40.3333 277.1 40.2C277.033 40.0667 277 39.9 277 39.7C276.933 39.9 276.867 40.0667 276.8 40.2C276.8 40.3333 276.767 40.4667 276.7 40.6L274.7 46.2H279.3L277.2 40.6Z" fill="#333"/>
</g>
<defs>
<clipPath id="clip0_23_2">
<rect width="341" height="52" fill="white"/>
</clipPath>
</defs>
</svg>
