<svg width="67" height="48" viewBox="0 0 67 48" fill="none" xmlns="http://www.w3.org/2000/svg">
<path id="Vector" opacity="0.4" d="M23.9922 0H4.53906C3.33523 0 2.1807 0.478222 1.32946 1.32946C0.478222 2.1807 0 3.33523 0 4.53906V25.2891C0 26.4929 0.478222 27.6474 1.32946 28.4987C2.1807 29.3499 3.33523 29.8281 4.53906 29.8281H24.6406V33.0703C24.6406 35.9939 23.4792 38.7978 21.4119 40.8651C19.3446 42.9324 16.5408 44.0938 13.6172 44.0938C13.1013 44.0938 12.6065 44.2987 12.2416 44.6635C11.8768 45.0283 11.6719 45.5231 11.6719 46.0391C11.6719 46.555 11.8768 47.0498 12.2416 47.4146C12.6065 47.7794 13.1013 47.9844 13.6172 47.9844C17.5711 47.9792 21.3615 46.4063 24.1573 43.6105C26.9532 40.8147 28.5261 37.0242 28.5312 33.0703V4.53906C28.5312 3.33523 28.053 2.1807 27.2018 1.32946C26.3506 0.478222 25.196 0 23.9922 0ZM24.6406 25.9375H4.53906C4.36709 25.9375 4.20215 25.8692 4.08055 25.7476C3.95894 25.626 3.89062 25.461 3.89062 25.2891V4.53906C3.89062 4.36709 3.95894 4.20215 4.08055 4.08055C4.20215 3.95894 4.36709 3.89062 4.53906 3.89062H23.9922C24.1642 3.89062 24.3291 3.95894 24.4507 4.08055C24.5723 4.20215 24.6406 4.36709 24.6406 4.53906V25.9375ZM61.6016 0H42.1484C40.9446 0 39.7901 0.478222 38.9388 1.32946C38.0876 2.1807 37.6094 3.33523 37.6094 4.53906V25.2891C37.6094 26.4929 38.0876 27.6474 38.9388 28.4987C39.7901 29.3499 40.9446 29.8281 42.1484 29.8281H62.25V33.0703C62.25 35.9939 61.0886 38.7978 59.0213 40.8651C56.954 42.9324 54.1502 44.0938 51.2266 44.0938C50.7106 44.0938 50.2158 44.2987 49.851 44.6635C49.4862 45.0283 49.2812 45.5231 49.2812 46.0391C49.2812 46.555 49.4862 47.0498 49.851 47.4146C50.2158 47.7794 50.7106 47.9844 51.2266 47.9844C55.1804 47.9792 58.9709 46.4063 61.7667 43.6105C64.5625 40.8147 66.1355 37.0242 66.1406 33.0703V4.53906C66.1406 3.33523 65.6624 2.1807 64.8112 1.32946C63.9599 0.478222 62.8054 0 61.6016 0ZM62.25 25.9375H42.1484C41.9765 25.9375 41.8115 25.8692 41.6899 25.7476C41.5683 25.626 41.5 25.461 41.5 25.2891V4.53906C41.5 4.36709 41.5683 4.20215 41.6899 4.08055C41.8115 3.95894 41.9765 3.89062 42.1484 3.89062H61.6016C61.7735 3.89062 61.9385 3.95894 62.0601 4.08055C62.1817 4.20215 62.25 4.36709 62.25 4.53906V25.9375Z" fill="#DFBEC3"/>
</svg>
